<svg xmlns="http://www.w3.org/2000/svg" version="1.1" xmlns:xlink="http://www.w3.org/1999/xlink" xmlns:svgjs="http://svgjs.dev/svgjs" width="1500" height="1500" viewBox="0 0 1500 1500"><rect width="1500" height="1500" fill="#000000"></rect><g transform="matrix(0.6666666666666666,0,0,0.6666666666666666,249.39393939393938,438.5856950067477)"><svg viewBox="0 0 396 247" data-background-color="#ffffff" preserveAspectRatio="xMidYMid meet" height="935" width="1500" xmlns="http://www.w3.org/2000/svg" xmlns:xlink="http://www.w3.org/1999/xlink"><g id="tight-bounds" transform="matrix(1,0,0,1,0.2400000000000091,-0.09999999999999432)"><svg viewBox="0 0 395.52 247.2" height="247.2" width="395.52"><g><svg></svg></g><g><svg viewBox="0 0 395.52 247.2" height="247.2" width="395.52"><g transform="matrix(1,0,0,1,75.54432,69.3018313196481)"><svg viewBox="0 0 244.43135999999998 108.5963373607038" height="108.5963373607038" width="244.43135999999998"><g><svg viewBox="0 0 244.43135999999998 108.5963373607038" height="108.5963373607038" width="244.43135999999998"><g><svg viewBox="0 0 244.43135999999998 108.5963373607038" height="108.5963373607038" width="244.43135999999998"><g><svg viewBox="0 0 244.43135999999998 108.5963373607038" height="108.5963373607038" width="244.43135999999998"><g id="textblocktransform"><svg viewBox="0 0 244.43135999999998 108.5963373607038" height="108.5963373607038" width="244.43135999999998" id="textblock"><g><svg viewBox="0 0 244.43135999999998 108.5963373607038" height="108.5963373607038" width="244.43135999999998"><g transform="matrix(1,0,0,1,0,0)"><svg width="244.43135999999998" viewBox="0.65 -36.85 102.28999999999999 45.45" height="108.5963373607038" data-palette-color="#333333"><path d="M5.85 0L2.1 0 16.45-35.85 21.35-35.85 35.7 0 31.95 0Q31.3 0 30.9-0.33 30.5-0.65 30.3-1.15L30.3-1.15 19.95-27.9Q19.7-28.6 19.43-29.43 19.15-30.25 18.9-31.25L18.9-31.25Q18.6-30.25 18.35-29.4 18.1-28.55 17.85-27.85L17.85-27.85 7.5-1.15Q7.35-0.7 6.93-0.35 6.5 0 5.85 0L5.85 0ZM8.45 0L5.8 0 5.8-3.1 8.45-3.1 8.45 0ZM27.7-10.6L10.25-10.6 11.6-14.1 26.35-14.1 27.7-10.6ZM32.15 0L29.5 0 29.5-3.1 32.15-3.1 32.15 0ZM5.75 0L0.65 0 0.65-2.05Q0.65-2.5 0.85-2.78 1.05-3.05 1.45-3.1L1.45-3.1 5.2-3.9 5.75 0ZM11.1 0L6 0 6.55-3.9 10.3-3.1Q10.7-3.05 10.9-2.78 11.1-2.5 11.1-2.05L11.1-2.05 11.1 0ZM31.8 0L26.7 0 26.7-2.05Q26.7-2.5 26.9-2.78 27.1-3.05 27.5-3.1L27.5-3.1 31.25-3.9 31.8 0ZM37.15 0L32.05 0 32.6-3.9 36.35-3.1Q36.75-3.05 36.95-2.78 37.15-2.5 37.15-2.05L37.15-2.05 37.15 0ZM45.45 8.6L42.15 8.6 46.75-1.5 36.3-25.35 40.15-25.35Q40.75-25.35 41.07-25.05 41.4-24.75 41.55-24.4L41.55-24.4 48.3-8.45Q48.45-8.1 48.65-7.45 48.85-6.8 49-6.25L49-6.25Q49.1-6.65 49.2-7 49.3-7.35 49.45-7.73 49.6-8.1 49.75-8.5L49.75-8.5 56.3-24.4Q56.45-24.8 56.82-25.08 57.2-25.35 57.6-25.35L57.6-25.35 61.15-25.35 47.05 7.5Q46.85 8 46.5 8.3 46.15 8.6 45.45 8.6L45.45 8.6ZM43.25-24.1L39.5-24.1 39.5-25.35 43.25-25.35 43.25-24.1ZM58.75-24.1L55-24.1 55-25.35 58.75-25.35 58.75-24.1ZM34.7-25.35L39.8-25.35 39.25-21.45 35.5-22.25Q35.1-22.35 34.9-22.6 34.7-22.85 34.7-23.3L34.7-23.3 34.7-25.35ZM40.95-25.35L46.05-25.35 46.05-23.3Q46.05-22.85 45.85-22.6 45.65-22.35 45.25-22.25L45.25-22.25 41.5-21.45 40.95-25.35ZM51.4-25.35L56.5-25.35 55.95-21.45 52.2-22.25Q51.8-22.35 51.6-22.6 51.4-22.85 51.4-23.3L51.4-23.3 51.4-25.35ZM57.65-25.35L62.75-25.35 62.75-23.3Q62.75-22.85 62.55-22.6 62.35-22.35 61.95-22.25L61.95-22.25 58.2-21.45 57.65-25.35ZM73.1 0L68.65 0 68.65-36.85 73.1-36.85 73.1 0ZM70.15 0L65.05 0 65.05-2.05Q65.05-2.5 65.25-2.78 65.45-3.05 65.85-3.1L65.85-3.1 69.6-3.9 70.15 0ZM76.7 0L71.6 0 72.15-3.9 75.9-3.1Q76.3-3.05 76.5-2.78 76.7-2.5 76.7-2.05L76.7-2.05 76.7 0ZM65.05-36.85L70.15-36.85 69.6-32.95 65.85-33.75Q65.45-33.85 65.25-34.1 65.05-34.35 65.05-34.8L65.05-34.8 65.05-36.85ZM86.49 0.4L86.49 0.4Q84.49 0.4 82.89-0.38 81.29-1.15 80.34-2.65 79.39-4.15 79.39-6.35L79.39-6.35Q79.39-7.85 80.22-9.22 81.04-10.6 82.89-11.7L82.89-11.7Q84.74-12.75 87.72-13.45 90.69-14.15 94.99-14.25L94.99-14.25 94.99-16.2Q94.99-19.15 93.72-20.68 92.44-22.2 89.99-22.2L89.99-22.2Q88.69-22.2 87.27-21.53 85.84-20.85 84.64-20.18 83.44-19.5 82.74-19.5L82.74-19.5Q82.29-19.5 81.97-19.75 81.64-20 81.44-20.35L81.44-20.35 80.64-21.75Q82.74-23.8 85.17-24.8 87.59-25.8 90.54-25.8L90.54-25.8Q93.39-25.8 95.34-24.6 97.29-23.4 98.32-21.25 99.34-19.1 99.34-16.2L99.34-16.2 99.34 0 97.39 0Q96.74 0 96.34-0.2 95.94-0.4 95.79-1.05L95.79-1.05 95.29-3.4Q93.29-1.6 91.29-0.6 89.29 0.4 86.49 0.4ZM87.79-2.75L87.79-2.75Q90.04-2.75 91.74-3.65 93.44-4.55 94.99-6.15L94.99-6.15 94.99-11.4Q92.39-11.35 90.29-11.03 88.19-10.7 86.72-10.13 85.24-9.55 84.47-8.68 83.69-7.8 83.69-6.55L83.69-6.55Q83.69-4.55 84.87-3.65 86.04-2.75 87.79-2.75ZM102.94 0L97.84 0 98.39-3.9 102.14-3.1Q102.54-3.05 102.74-2.78 102.94-2.5 102.94-2.05L102.94-2.05 102.94 0Z" opacity="1" transform="matrix(1,0,0,1,0,0)" fill="#ffffff" class="wordmark-text-0" data-fill-palette-color="primary" id="text-0"></path></svg></g></svg></g></svg></g></svg></g></svg></g></svg></g></svg></g><g><path d="M0 123.6c0-68.262 55.338-123.6 123.6-123.6 43.519 0 81.784 22.491 103.807 56.483l-5.886 0c-21.395-31.154-57.272-51.587-97.921-51.586-65.558 0-118.703 53.145-118.703 118.703 0 65.558 53.145 118.703 118.703 118.703 40.649 0 76.526-20.432 97.921-51.586h5.886c-22.023 33.992-60.289 56.483-103.807 56.483-68.262 0-123.6-55.338-123.6-123.6z" fill="#ffffff" stroke="transparent" data-fill-palette-color="tertiary"></path></g></svg></g><defs></defs></svg><rect width="395.52" height="247.2" fill="none" stroke="none" visibility="hidden"></rect></g></svg></g></svg>